Treasure Guards 2011 BRRip XviD Ac3 Feel-Free

Genre: Adventure
Language:English
IMDb:http://www.imdb.com/title/tt1786742/
Source:720p BluRay x264-PFa Thanks!
Encoder:Tony
 
Format                                   : AVI
Format/Info                              : Audio Video Interleave
File size                                : 1.35 GiB
Duration                                 : 1h 36mn
Overall bit rate                         : 1 994 Kbps


Video
ID                                       : 0
Format                                   : MPEG-4 Visual
Format profile                           : Advanced Simple@L5
Format settings, BVOP                    : 1
Format settings, QPel                    : No
Format settings, GMC                     : No warppoints
Format settings, Matrix                  : Default (H.263)
Codec ID                                 : XVID
Codec ID/Hint                            : XviD
Duration                                 : 1h 36mn
Bit rate                                 : 1 537 Kbps
Width                                    : 640 pixels
Height                                   : 360 pixels
Display aspect ratio                     : 16:9
Frame rate                               : 23.976 fps
Color space                              : YUV
Chroma subsampling                       : 4:2:0
Bit depth                                : 8 bits
Scan type                                : Progressive
Compression mode                         : Lossy
Bits/(Pixel*Frame)                       : 0.278
Stream size                              : 1.04 GiB (77%)
Writing library                          : XviD 1.2.1 (UTC 2008-12-04)

Audio
ID                                       : 1
Format                                   : AC-3
Format/Info                              : Audio Coding 3
Mode extension                           : CM (complete main)
Codec ID                                 : 2000
Duration                                 : 1h 36mn
Bit rate mode                            : Constant
Bit rate                                 : 448 Kbps
Channel(s)                               : 6 channels
Channel positions                        : Front: L C R, Side: L R, LFE
Sampling rate                            : 48.0 KHz
Bit depth                                : 16 bits
Compression mode                         : Lossy
Stream size                              : 311 MiB (22%)
Alignment                                : Aligned on interleaves
Interleave, duration                     : 42 ms (1.00 video frame)
Interleave, preload duration             : 512 ms


Plot:     
 On a dig in the remote Jordanian desert, maverick archaeologist Victoria Carter (Anna Friel) discovers an ancient scroll buried in the ruins of an old temple. It is encrypted with the location of the long lost Seal of Solomon, which, according to legend, was given to King Solomon by God himself. But this mighty treasure is also being sought by, amongst others, Victorias estranged father, renowned archaeologist Teddy Carter, whos soon hot on its trail.


Poster:

 
http://i.imgur.com/B6IxU.jpg


Screens:

 
http://i.imgur.com/T0xlF.png

 
http://i.imgur.com/hvCQm.png

 
http://i.imgur.com/vVVFK.png


ENJOY!